<?xml version="1.0" encoding="UTF-8"?>
<svg width="700pt" height="700pt" version="1.1" viewBox="0 0 700 700" xmlns="http://www.w3.org/2000/svg" xmlns:xlink="http://www.w3.org/1999/xlink">
 <g>
  <path fill="#fdb813" d="m471.57 39.199c31.613 0.03125 61.922 12.602 84.273 34.953 22.352 22.352 34.922 52.66 34.953 84.273v243.15c-0.03125 31.613-12.602 61.922-34.953 84.273-22.352 22.352-52.66 34.922-84.273 34.953h-243.15c-31.613-0.03125-61.922-12.602-84.273-34.953-22.352-22.352-34.922-52.66-34.953-84.273v-243.15c0.03125-31.613 12.602-61.922 34.953-84.273 22.352-22.352 52.66-34.922 84.273-34.953h243.15m0-39.199h-243.15c-41.98 0.11719-82.211 16.848-111.89 46.531s-46.414 69.914-46.531 111.89v243.15c0.11719 41.98 16.848 82.211 46.531 111.89s69.914 46.414 111.89 46.531h243.15c41.98-0.11719 82.211-16.848 111.89-46.531s46.414-69.914 46.531-111.89v-243.15c-0.11719-41.98-16.848-82.211-46.531-111.89s-69.914-46.414-111.89-46.531z"/>
  <path fill="#fdb813" d="m382.2 320.71c0 22.398-0.44922 44.801 0 67.199 0.125 9.5547-4.0586 18.656-11.391 24.781-7.332 6.125-17.031 8.625-26.41 6.8047-2.8828-0.46484-5.7188-1.2148-8.4531-2.2383-5.1016-1.7422-9.5391-5.0195-12.707-9.3789s-4.9102-9.5938-4.9922-14.984v-5.6016-133.45 0.003906c-0.30078-6.5703 1.543-13.062 5.25-18.496 3.7031-5.4336 9.0781-9.5156 15.305-11.633 6.6172-2.5469 13.887-2.8711 20.707-0.92188 6.8203 1.9492 12.82 6.0664 17.094 11.73 3.7422 4.918 5.7148 10.957 5.5977 17.137v69.047z"/>
  <path fill="#fdb813" d="m384.33 174.5c-0.046875 9.1367-3.7344 17.875-10.242 24.285-6.5117 6.4102-15.309 9.9609-24.445 9.8633-9.1367-0.09375-17.855-3.8281-24.23-10.371-6.375-6.5469-9.8789-15.363-9.7344-24.496 0.14453-9.1367 3.9258-17.836 10.504-24.176 6.5781-6.3398 15.414-9.7969 24.547-9.6016 9.0234 0.14844 17.617 3.8594 23.914 10.32 6.293 6.4648 9.7773 15.152 9.6875 24.176z"/>
  <use x="70" y="644" xlink:href="#t"/>
  <use x="90.550781" y="644" xlink:href="#d"/>
  <use x="104.359375" y="644" xlink:href="#a"/>
  <use x="123.347656" y="644" xlink:href="#k"/>
  <use x="142.242188" y="644" xlink:href="#c"/>
  <use x="155.628906" y="644" xlink:href="#a"/>
  <use x="174.617188" y="644" xlink:href="#j"/>
  <use x="204.410156" y="644" xlink:href="#i"/>
  <use x="224.453125" y="644" xlink:href="#h"/>
  <use x="252.453125" y="644" xlink:href="#g"/>
  <use x="271.796875" y="644" xlink:href="#f"/>
  <use x="288.394531" y="644" xlink:href="#b"/>
  <use x="307.632812" y="644" xlink:href="#e"/>
  <use x="327.5625" y="644" xlink:href="#s"/>
  <use x="70" y="672" xlink:href="#r"/>
  <use x="82.183594" y="672" xlink:href="#d"/>
  <use x="95.992188" y="672" xlink:href="#b"/>
  <use x="115.226562" y="672" xlink:href="#q"/>
  <use x="154.152344" y="672" xlink:href="#c"/>
  <use x="167.535156" y="672" xlink:href="#p"/>
  <use x="187.46875" y="672" xlink:href="#a"/>
  <use x="216.207031" y="672" xlink:href="#o"/>
  <use x="239.640625" y="672" xlink:href="#b"/>
  <use x="258.878906" y="672" xlink:href="#n"/>
  <use x="278.8125" y="672" xlink:href="#e"/>
  <use x="308.492188" y="672" xlink:href="#m"/>
  <use x="329.015625" y="672" xlink:href="#d"/>
  <use x="342.820312" y="672" xlink:href="#b"/>
  <use x="362.058594" y="672" xlink:href="#l"/>
  <use x="371.65625" y="672" xlink:href="#a"/>
  <use x="390.648438" y="672" xlink:href="#f"/>
  <use x="407.242188" y="672" xlink:href="#c"/>
 </g>
</svg>
