<?xml version="1.0" encoding="utf-8"?>
<!-- Generator: Adobe Illustrator 21.1.0, SVG Export Plug-In . SVG Version: 6.00 Build 0)  -->
<svg version="1.1" id="Layer_1" xmlns="http://www.w3.org/2000/svg" xmlns:xlink="http://www.w3.org/1999/xlink" x="0px" y="0px"
	 viewBox="0 0 303.6 262.9" style="enable-background:new 0 0 303.6 262.9;" xml:space="preserve">
<style type="text/css">
	.st0{fill:#DE7826;}
</style>
<path class="st0" d="M283,158.1c-7.8,7.3-66.8,53-99.4,73.6c-3.5,2.1-6.5,3.6-10.3,3.6c-6.6,0-12.3-3.8-14.7-9.2
	c-0.2-0.3-0.3-0.7-0.5-1.2c0-0.1,0-0.1,0-0.1c-0.1-0.3-0.2-0.7-0.3-1.1c0-0.1-0.1-0.3-0.1-0.4c-1.4-6.2-2.6-31.8-3.4-55.7
	c-0.4-12-0.7-23.5-1-32.1c-0.1-4.3-0.3-7.8-0.4-10.3c-0.1-1.2-0.1-2.2-0.2-2.9c0-0.3,0-0.6-0.1-0.8c0-0.1,0-0.2,0-0.3
	c0-0.1,0-0.1-0.1-0.2c-0.1-0.1-0.1-0.4-0.8-0.5c-0.7,0.1-0.7,0.5-0.8,0.5c-0.1,0.4-0.1,0.4-0.1,0.7c-0.4,3.3-0.9,25.6-1.7,48.7
	c-0.8,23-1.9,47-3.3,52.9c0,0.2-0.1,0.3-0.1,0.5c-0.1,0.4-0.2,0.7-0.3,1.1c0,0,0,0,0,0.1c-0.2,0.5-0.3,0.9-0.4,1.2
	c-2.4,5.4-8.1,9.2-14.7,9.2c-3.9,0-6.8-1.5-10.4-3.6c-32.5-20.5-91.6-66.2-99.4-73.6c-3.9-3.7-5.6-6.5-5.6-9.1
	c0-2.6,1.7-5.4,5.6-9.1c7.6-7.2,108.7-83.6,122.8-91.1c0,0,0.1,0,0.2-0.1c0.1,0,0.2-0.1,0.4-0.2c3.8-1.9,4.3-2.3,7.8-2.3
	c3.5,0.1,4,0.5,7.8,2.3c0.2,0.1,0.3,0.1,0.4,0.2c0.1,0.1,0.2,0.1,0.2,0.1c14.1,7.5,115.2,83.9,122.8,91.1c3.9,3.6,5.6,6.5,5.6,9.1
	C288.6,151.6,286.9,154.5,283,158.1 M30.2,32c0.6-9.6,4-15.3,8-16.8c1.6-0.6,3.1-0.9,4.6-0.9c4.8,0,9.8,3.1,16.8,8.2
	c6.4,4.7,15.6,11.6,23,19c7.5,7.4,13.3,15.3,13.2,21.7c0,2.9-1.1,5.5-3.6,7.8c-2,1.8-3.5,3.2-4.5,4.2c-11.8,9.2-24,18.8-35.4,27.9
	c-0.8,0.4-2.4,1.5-5,3.3c-2,1.4-3.7,2-5.1,2c-1.7,0-3-0.8-4.4-2.5c-3.9-5.1-5.9-18.2-7.1-34c-0.8-10.1-1.1-17-1.1-23.1
	C29.5,43.3,29.8,38.3,30.2,32 M220.2,39.9c8-6.7,17.5-12.7,23.8-17.4c6.9-5.1,12-8.3,16.8-8.2c1.5,0,3,0.3,4.6,0.9
	c3.9,1.5,6.1,7.1,6.6,16.8c0.4,6.9,0.8,12.5,0.8,19.3c0,5.6-0.2,12-0.9,20.8c-0.9,10.5-1.7,19.8-3.3,26.3c-0.8,3.3-1.8,5.8-3,7.5
	c-1.2,1.7-2.4,2.5-4,2.5c-1.3,0-3-0.6-5-2c-2.6-1.8-4.2-2.8-5-3.3c-11.2-8.9-23.3-18.4-34.9-27.5c-1-1-2.7-2.6-5-4.7
	c-3.8-3.4-5.3-6.9-5.4-10.3C206,54,212.3,46.6,220.2,39.9 M295.6,139.8c-2.5-2.3-6-5.4-10.3-9l0.2-0.3c-4.9-5.6-6.4-6.3-6.5-17.3
	c0-4.1,0.3-9.5,0.7-16.9c1-16.2,1.4-28.8,1.4-40.3c0-10.3-0.4-19.7-1.1-30c-0.4-5.9-1.4-10.9-2.7-14.8c-1.9-5.7-6.1-9.4-11.9-9.4
	c-0.9,0-1.8,0.1-2.8,0.3c-3.8,0.7-7.3,3.2-12.7,7c-9.8,6.9-22.8,17.4-34.8,26.2c-6,4.4-11.7,8.4-16.7,11.2
	c-4.9,2.9-9.1,4.6-11.7,4.5c-0.8,0-1.4-0.1-1.8-0.4c-0.9-0.4-1.2-0.7-1.8-0.8c-10-7.7-17.8-13.8-22-17c-0.6-0.5-1.3-0.9-1.8-1.3
	c-1.8-1.3-4-2.2-6.4-2.4v0h-0.9c0,0-0.1,0-0.3,0h0h0c-0.2,0-0.3,0-0.3,0h-0.9v0c-2.4,0.2-4.6,1.1-6.4,2.4c-0.5,0.4-1.2,0.8-1.8,1.3
	c-4.1,3.2-12,9.3-22,17c-0.6,0.1-0.9,0.3-1.8,0.8c-0.5,0.3-1.1,0.4-1.8,0.4c-2.6,0-6.7-1.7-11.7-4.5C90.3,37.9,68.3,19.3,53.6,9
	C48.2,5.2,44.8,2.7,41,2c-1-0.2-1.9-0.3-2.8-0.3c-5.8,0-10,3.6-11.9,9.4c-1.3,4-2.3,8.9-2.7,14.8c-0.7,10.2-1.1,19.6-1.1,30
	c0,11.5,0.5,24.1,1.4,40.3c0.4,7.5,0.7,12.9,0.7,16.9c-0.1,11-1.6,11.8-6.5,17.3l0.3,0.3c-4.3,3.6-7.8,6.7-10.3,9
	c-2.7,2.6-4.7,6.1-4.7,9.9c0,3,1.2,6.1,4.1,8.8c7.3,6.8,37.9,30.2,68.5,52.7c30.6,22.5,61,44.2,68.3,47.7c0.8,0.4,1.5,0.7,2.1,0.9
	c1.3,0.6,2.8,1,4.4,1.2v0.1h0.9c0,0,0.1,0,0.3,0h0h0c0.2,0,0.3,0,0.3,0h0.9V261c1.6-0.1,3.1-0.6,4.4-1.2c0.6-0.2,1.3-0.5,2.1-0.9
	c7.2-3.5,37.7-25.1,68.3-47.7c30.6-22.5,61.2-45.9,68.4-52.7c2.9-2.7,4.2-5.8,4.1-8.8C300.3,145.9,298.3,142.4,295.6,139.8"/>
</svg>
